{
    "asset" : {
        "generator" : "Khronos glTF Blender I/O v0.9.36",
        "version" : "2.0"
    },
    "extensionsUsed" : [
        "KHR_lights_punctual"
    ],
    "extensionsRequired" : [
        "KHR_lights_punctual"
    ],
    "extensions" : {
        "KHR_lights_punctual" : {
            "lights" : [
                {
                    "color" : [
                        1,
                        1,
                        0
                    ],
                    "intensity" : 25,
                    "spot" : {
                        "innerConeAngle" : 0.21549473846766887,
                        "outerConeAngle" : 1.439896583557129
                    },
                    "type" : "spot",
                    "name" : "Light"
                }
            ]
        }
    },
    "scene" : 0,
    "scenes" : [
        {
            "extras" : {
                "glTF2ExportSettings" : {
                    "export_all_influences" : 0,
                    "export_animations" : 0,
                    "export_apply" : 1,
                    "export_cameras" : 0,
                    "export_colors" : 1,
                    "export_copyright" : "",
                    "export_current_frame" : 0,
                    "export_displacement" : 0,
                    "export_draco_mesh_compression_enable" : 0,
                    "export_draco_mesh_compression_level" : 6,
                    "export_draco_normal_quantization" : 10,
                    "export_draco_position_quantization" : 14,
                    "export_draco_texcoord_quantization" : 12,
                    "export_extras" : 1,
                    "export_force_sampling" : 0,
                    "export_format" : "GLTF_EMBEDDED",
                    "export_frame_range" : 0,
                    "export_frame_step" : 60,
                    "export_image_format" : "NAME",
                    "export_lights" : 1,
                    "export_materials" : 1,
                    "export_morph" : 0,
                    "export_morph_normal" : 0,
                    "export_morph_tangent" : 0,
                    "export_normals" : 1,
                    "export_selected" : 0,
                    "export_skins" : 0,
                    "export_tangents" : 1,
                    "export_texcoords" : 1,
                    "export_yup" : 1
                }
            },
            "name" : "Scene",
            "nodes" : [
                0,
                2
            ]
        }
    ],
    "nodes" : [
        {
            "mesh" : 0,
            "name" : "Harvester",
            "rotation" : [
                0.7071068286895752,
                0,
                0,
                0.7071067094802856
            ],
            "scale" : [
                0.009999999776482582,
                0.009999999776482582,
                0.009999999776482582
            ],
            "translation" : [
                0.43150001764297485,
                0,
                0.7625000476837158
            ]
        },
        {
            "extensions" : {
                "KHR_lights_punctual" : {
                    "light" : 0
                }
            },
            "name" : "Orange Flash_Orientation",
            "rotation" : [
                -0.7071067690849304,
                0,
                0,
                0.7071067690849304
            ]
        },
        {
            "children" : [
                1
            ],
            "name" : "Orange Flash",
            "rotation" : [
                0.17134541273117065,
                -0.2958129346370697,
                0.9381986856460571,
                0.05402500554919243
            ],
            "translation" : [
                0.640500009059906,
                1,
                0.5575000047683716
            ]
        }
    ],
    "materials" : [
        {
            "doubleSided" : true,
            "name" : "CCar_Paint_1",
            "pbrMetallicRoughness" : {
                "baseColorFactor" : [
                    0.8227859139442444,
                    0.10224173218011856,
                    0.054480284452438354,
                    1
                ],
                "metallicFactor" : 0,
                "roughnessFactor" : 0.8671577572822571
            }
        },
        {
            "doubleSided" : true,
            "name" : "CMetal2",
            "pbrMetallicRoughness" : {
                "baseColorFactor" : [
                    0.1525629758834839,
                    0.19494780898094177,
                    0.23301449418067932,
                    1
                ],
                "metallicFactor" : 0,
                "roughnessFactor" : 0.8671577572822571
            }
        },
        {
            "doubleSided" : true,
            "name" : "CShed_Red",
            "pbrMetallicRoughness" : {
                "baseColorFactor" : [
                    0.2140345275402069,
                    0.03185294196009636,
                    0.02140944078564644,
                    1
                ],
                "metallicFactor" : 0,
                "roughnessFactor" : 0.8671577572822571
            }
        },
        {
            "doubleSided" : true,
            "name" : "CWhite",
            "pbrMetallicRoughness" : {
                "baseColorFactor" : [
                    0.4969330132007599,
                    0.4969330132007599,
                    0.4969330132007599,
                    1
                ],
                "metallicFactor" : 0,
                "roughnessFactor" : 0.8671577572822571
            }
        },
        {
            "doubleSided" : true,
            "name" : "CTire",
            "pbrMetallicRoughness" : {
                "baseColorFactor" : [
                    0.03106330707669258,
                    0.03106330707669258,
                    0.03106330707669258,
                    1
                ],
                "metallicFactor" : 0,
                "roughnessFactor" : 0.8671577572822571
            }
        },
        {
            "doubleSided" : true,
            "name" : "CDark",
            "pbrMetallicRoughness" : {
                "baseColorFactor" : [
                    0.09462479501962662,
                    0.07898728549480438,
                    0.07453769445419312,
                    1
                ],
                "metallicFactor" : 0,
                "roughnessFactor" : 0.8671577572822571
            }
        },
        {
            "alphaMode" : "BLEND",
            "doubleSided" : true,
            "name" : "COrange",
            "pbrMetallicRoughness" : {
                "baseColorFactor" : [
                    0.8879232406616211,
                    0.25015830993652344,
                    0.09530746936798096,
                    1
                ],
                "metallicFactor" : 0,
                "roughnessFactor" : 0.800000011920929
            }
        },
        {
            "doubleSided" : true,
            "name" : "CWhite_Bright",
            "pbrMetallicRoughness" : {
                "baseColorFactor" : [
                    0.6038134098052979,
                    0.6038134098052979,
                    0.6038134098052979,
                    1
                ],
                "metallicFactor" : 0,
                "roughnessFactor" : 0.8671577572822571
            }
        }
    ],
    "meshes" : [
        {
            "name" : "Harvester",
            "primitives" : [
                {
                    "attributes" : {
                        "POSITION" : 0,
                        "NORMAL" : 1,
                        "TANGENT" : 2,
                        "TEXCOORD_0" : 3
                    },
                    "indices" : 4,
                    "material" : 0
                },
                {
                    "attributes" : {
                        "POSITION" : 5,
                        "NORMAL" : 6,
                        "TANGENT" : 7,
                        "TEXCOORD_0" : 8
                    },
                    "indices" : 9,
                    "material" : 1
                },
                {
                    "attributes" : {
                        "POSITION" : 10,
                        "NORMAL" : 11,
                        "TANGENT" : 12,
                        "TEXCOORD_0" : 13
                    },
                    "indices" : 14,
                    "material" : 2
                },
                {
                    "attributes" : {
                        "POSITION" : 15,
                        "NORMAL" : 16,
                        "TANGENT" : 17,
                        "TEXCOORD_0" : 18
                    },
                    "indices" : 19,
                    "material" : 3
                },
                {
                    "attributes" : {
                        "POSITION" : 20,
                        "NORMAL" : 21,
                        "TANGENT" : 22,
                        "TEXCOORD_0" : 23
                    },
                    "indices" : 24,
                    "material" : 4
                },
                {
                    "attributes" : {
                        "POSITION" : 25,
                        "NORMAL" : 26,
                        "TANGENT" : 27,
                        "TEXCOORD_0" : 28
                    },
                    "indices" : 29,
                    "material" : 5
                },
                {
                    "attributes" : {
                        "POSITION" : 30,
                        "NORMAL" : 31,
                        "TANGENT" : 32,
                        "TEXCOORD_0" : 33
                    },
                    "indices" : 34,
                    "material" : 6
                },
                {
                    "attributes" : {
                        "POSITION" : 35,
                        "NORMAL" : 36,
                        "TANGENT" : 37,
                        "TEXCOORD_0" : 38
                    },
                    "indices" : 39,
                    "material" : 7
                }
            ]
        }
    ],
    "accessors" : [
        {
            "bufferView" : 0,
            "componentType" : 5126,
            "count" : 539,
            "max" : [
                29.257583618164062,
                44.515228271484375,
                -14.59793472290039
            ],
            "min" : [
                -34.37042236328125,
                -74.37629699707031,
                -98.15623474121094
            ],
            "type" : "VEC3"
        },
        {
            "bufferView" : 1,
            "componentType" : 5126,
            "count" : 539,
            "type" : "VEC3"
        },
        {
            "bufferView" : 2,
            "componentType" : 5126,
            "count" : 539,
            "type" : "VEC4"
        },
        {
            "bufferView" : 3,
            "componentType" : 5126,
            "count" : 539,
            "type" : "VEC2"
        },
        {
            "bufferView" : 4,
            "componentType" : 5123,
            "count" : 795,
            "type" : "SCALAR"
        },
        {
            "bufferView" : 5,
            "componentType" : 5126,
            "count" : 1046,
            "max" : [
                45.00885009765625,
                56.32286071777344,
                -9.253663063049316
            ],
            "min" : [
                -43.11485290527344,
                -84.89551544189453,
                -130.4035186767578
            ],
            "type" : "VEC3"
        },
        {
            "bufferView" : 6,
            "componentType" : 5126,
            "count" : 1046,
            "type" : "VEC3"
        },
        {
            "bufferView" : 7,
            "componentType" : 5126,
            "count" : 1046,
            "type" : "VEC4"
        },
        {
            "bufferView" : 8,
            "componentType" : 5126,
            "count" : 1046,
            "type" : "VEC2"
        },
        {
            "bufferView" : 9,
            "componentType" : 5123,
            "count" : 1818,
            "type" : "SCALAR"
        },
        {
            "bufferView" : 10,
            "componentType" : 5126,
            "count" : 128,
            "max" : [
                37.287139892578125,
                42.42382049560547,
                -46.60577392578125
            ],
            "min" : [
                -42.39997863769531,
                -72.86109924316406,
                -104.28070831298828
            ],
            "type" : "VEC3"
        },
        {
            "bufferView" : 11,
            "componentType" : 5126,
            "count" : 128,
            "type" : "VEC3"
        },
        {
            "bufferView" : 12,
            "componentType" : 5126,
            "count" : 128,
            "type" : "VEC4"
        },
        {
            "bufferView" : 13,
            "componentType" : 5126,
            "count" : 128,
            "type" : "VEC2"
        },
        {
            "bufferView" : 14,
            "componentType" : 5123,
            "count" : 192,
            "type" : "SCALAR"
        },
        {
            "bufferView" : 15,
            "componentType" : 5126,
            "count" : 12,
            "max" : [
                14.253997802734375,
                44.37875747680664,
                -59.48107147216797
            ],
            "min" : [
                -19.366836547851562,
                -1.1218070983886719,
                -102.64875793457031
            ],
            "type" : "VEC3"
        },
        {
            "bufferView" : 16,
            "componentType" : 5126,
            "count" : 12,
            "type" : "VEC3"
        },
        {
            "bufferView" : 17,
            "componentType" : 5126,
            "count" : 12,
            "type" : "VEC4"
        },
        {
            "bufferView" : 18,
            "componentType" : 5126,
            "count" : 12,
            "type" : "VEC2"
        },
        {
            "bufferView" : 19,
            "componentType" : 5123,
            "count" : 18,
            "type" : "SCALAR"
        },
        {
            "bufferView" : 20,
            "componentType" : 5126,
            "count" : 1964,
            "max" : [
                38.00201416015625,
                45.009422302246094,
                0
            ],
            "min" : [
                -43.11485290527344,
                -76.32112121582031,
                -87.17020416259766
            ],
            "type" : "VEC3"
        },
        {
            "bufferView" : 21,
            "componentType" : 5126,
            "count" : 1964,
            "type" : "VEC3"
        },
        {
            "bufferView" : 22,
            "componentType" : 5126,
            "count" : 1964,
            "type" : "VEC4"
        },
        {
            "bufferView" : 23,
            "componentType" : 5126,
            "count" : 1964,
            "type" : "VEC2"
        },
        {
            "bufferView" : 24,
            "componentType" : 5123,
            "count" : 3978,
            "type" : "SCALAR"
        },
        {
            "bufferView" : 25,
            "componentType" : 5126,
            "count" : 332,
            "max" : [
                36.94648742675781,
                46.06828689575195,
                -48.32829284667969
            ],
            "min" : [
                -42.059326171875,
                -4.079723358154297,
                -115.26959228515625
            ],
            "type" : "VEC3"
        },
        {
            "bufferView" : 26,
            "componentType" : 5126,
            "count" : 332,
            "type" : "VEC3"
        },
        {
            "bufferView" : 27,
            "componentType" : 5126,
            "count" : 332,
            "type" : "VEC4"
        },
        {
            "bufferView" : 28,
            "componentType" : 5126,
            "count" : 332,
            "type" : "VEC2"
        },
        {
            "bufferView" : 29,
            "componentType" : 5123,
            "count" : 726,
            "type" : "SCALAR"
        },
        {
            "bufferView" : 30,
            "componentType" : 5126,
            "count" : 66,
            "max" : [
                24.100112915039062,
                -16.85934066772461,
                -99.95430755615234
            ],
            "min" : [
                17.670440673828125,
                -24.283981323242188,
                -109.58464050292969
            ],
            "type" : "VEC3"
        },
        {
            "bufferView" : 31,
            "componentType" : 5126,
            "count" : 66,
            "type" : "VEC3"
        },
        {
            "bufferView" : 32,
            "componentType" : 5126,
            "count" : 66,
            "type" : "VEC4"
        },
        {
            "bufferView" : 33,
            "componentType" : 5126,
            "count" : 66,
            "type" : "VEC2"
        },
        {
            "bufferView" : 34,
            "componentType" : 5123,
            "count" : 90,
            "type" : "SCALAR"
        },
        {
            "bufferView" : 35,
            "componentType" : 5126,
            "count" : 90,
            "max" : [
                22.838973999023438,
                53.39794158935547,
                -49.8030891418457
            ],
            "min" : [
                -27.951812744140625,
                43.6894416809082,
                -122.10469055175781
            ],
            "type" : "VEC3"
        },
        {
            "bufferView" : 36,
            "componentType" : 5126,
            "count" : 90,
            "type" : "VEC3"
        },
        {
            "bufferView" : 37,
            "componentType" : 5126,
            "count" : 90,
            "type" : "VEC4"
        },
        {
            "bufferView" : 38,
            "componentType" : 5126,
            "count" : 90,
            "type" : "VEC2"
        },
        {
            "bufferView" : 39,
            "componentType" : 5123,
            "count" : 300,
            "type" : "SCALAR"
        }
    ],
    "bufferViews" : [
        {
            "buffer" : 0,
            "byteLength" : 6468,
            "byteOffset" : 0
        },
        {
            "buffer" : 0,
            "byteLength" : 6468,
            "byteOffset" : 6468
        },
        {
            "buffer" : 0,
            "byteLength" : 8624,
            "byteOffset" : 12936
        },
        {
            "buffer" : 0,
            "byteLength" : 4312,
            "byteOffset" : 21560
        },
        {
            "buffer" : 0,
            "byteLength" : 1590,
            "byteOffset" : 25872
        },
        {
            "buffer" : 0,
            "byteLength" : 12552,
            "byteOffset" : 27464
        },
        {
            "buffer" : 0,
            "byteLength" : 12552,
            "byteOffset" : 40016
        },
        {
            "buffer" : 0,
            "byteLength" : 16736,
            "byteOffset" : 52568
        },
        {
            "buffer" : 0,
            "byteLength" : 8368,
            "byteOffset" : 69304
        },
        {
            "buffer" : 0,
            "byteLength" : 3636,
            "byteOffset" : 77672
        },
        {
            "buffer" : 0,
            "byteLength" : 1536,
            "byteOffset" : 81308
        },
        {
            "buffer" : 0,
            "byteLength" : 1536,
            "byteOffset" : 82844
        },
        {
            "buffer" : 0,
            "byteLength" : 2048,
            "byteOffset" : 84380
        },
        {
            "buffer" : 0,
            "byteLength" : 1024,
            "byteOffset" : 86428
        },
        {
            "buffer" : 0,
            "byteLength" : 384,
            "byteOffset" : 87452
        },
        {
            "buffer" : 0,
            "byteLength" : 144,
            "byteOffset" : 87836
        },
        {
            "buffer" : 0,
            "byteLength" : 144,
            "byteOffset" : 87980
        },
        {
            "buffer" : 0,
            "byteLength" : 192,
            "byteOffset" : 88124
        },
        {
            "buffer" : 0,
            "byteLength" : 96,
            "byteOffset" : 88316
        },
        {
            "buffer" : 0,
            "byteLength" : 36,
            "byteOffset" : 88412
        },
        {
            "buffer" : 0,
            "byteLength" : 23568,
            "byteOffset" : 88448
        },
        {
            "buffer" : 0,
            "byteLength" : 23568,
            "byteOffset" : 112016
        },
        {
            "buffer" : 0,
            "byteLength" : 31424,
            "byteOffset" : 135584
        },
        {
            "buffer" : 0,
            "byteLength" : 15712,
            "byteOffset" : 167008
        },
        {
            "buffer" : 0,
            "byteLength" : 7956,
            "byteOffset" : 182720
        },
        {
            "buffer" : 0,
            "byteLength" : 3984,
            "byteOffset" : 190676
        },
        {
            "buffer" : 0,
            "byteLength" : 3984,
            "byteOffset" : 194660
        },
        {
            "buffer" : 0,
            "byteLength" : 5312,
            "byteOffset" : 198644
        },
        {
            "buffer" : 0,
            "byteLength" : 2656,
            "byteOffset" : 203956
        },
        {
            "buffer" : 0,
            "byteLength" : 1452,
            "byteOffset" : 206612
        },
        {
            "buffer" : 0,
            "byteLength" : 792,
            "byteOffset" : 208064
        },
        {
            "buffer" : 0,
            "byteLength" : 792,
            "byteOffset" : 208856
        },
        {
            "buffer" : 0,
            "byteLength" : 1056,
            "byteOffset" : 209648
        },
        {
            "buffer" : 0,
            "byteLength" : 528,
            "byteOffset" : 210704
        },
        {
            "buffer" : 0,
            "byteLength" : 180,
            "byteOffset" : 211232
        },
        {
            "buffer" : 0,
            "byteLength" : 1080,
            "byteOffset" : 211412
        },
        {
            "buffer" : 0,
            "byteLength" : 1080,
            "byteOffset" : 212492
        },
        {
            "buffer" : 0,
            "byteLength" : 1440,
            "byteOffset" : 213572
        },
        {
            "buffer" : 0,
            "byteLength" : 720,
            "byteOffset" : 215012
        },
        {
            "buffer" : 0,
            "byteLength" : 600,
            "byteOffset" : 215732
        }
    ],
    "buffers" : [
        {
            "byteLength" : 216332,
            "uri" : "data:application/octet-stream;base64,"
        }
    ]
}
